<?xml version="1.0" encoding="UTF-8"?>
<svg width="24px" height="24px" viewBox="0 0 24 24" version="1.1" xmlns="http://www.w3.org/2000/svg" xmlns:xlink="http://www.w3.org/1999/xlink">
    <!-- Generator: Sketch 39.1 (31720) - http://www.bohemiancoding.com/sketch -->
    <title>Group 9</title>
    <desc>Created with Sketch.</desc>
    <defs></defs>
    <g id="Symbols" stroke="none" stroke-width="1" fill="none" fill-rule="evenodd">
        <g id="Group-9">
            <g id="web_voice_normal_right">
                <g>
                    <g id="Group-32" transform="translate(1.000000, 3.000000)" fill-opacity="0.26" fill="#000000">
                        <path d="M13.4348626,2.17431778 C16.6168386,3.08030545 18.9378691,5.89786658 18.9378691,9.23525886 C18.9378691,12.5727827 16.6168386,15.3903438 13.4348626,16.2963315 L13.4348626,18.4706493 C17.8455223,17.5129548 21.1390717,13.7432251 21.1390717,9.23525886 C21.1390717,4.72742419 17.8455223,0.957694489 13.4348626,0 L13.4348626,2.17431778 Z M13.4348626,13.485612 C15.0652659,12.7104044 16.1863659,11.1020987 16.1863659,9.24262675 C16.1863659,7.38315482 15.0652659,5.77484909 13.4348626,4.99964151 L13.4348626,13.485612 Z M11.0272742,0.374099507 C11.0272742,0.0990211547 10.8648724,0.0313384244 10.6656483,0.221865732 L5.31725819,5.33677938 C5.11753771,5.52778134 4.72982176,5.68261902 4.46234985,5.68261902 L0.493282432,5.68261902 C0.220850067,5.68261902 0,5.91579467 0,6.18663211 L0,12.1868147 C0,12.4651734 0.225810519,12.6908277 0.493282432,12.6908277 L4.46234985,12.6908277 C4.73478221,12.6908277 5.11803403,12.8461362 5.31725819,13.0366587 L10.6656483,18.1514437 C10.8653687,18.3424409 11.0272742,18.2751769 11.0272742,17.9992013 L11.0272742,0.374099507 Z" id="Combined-Shape"></path>
                    </g>
                    <rect id="voice" x="0" y="0" width="24" height="24"></rect>
                </g>
            </g>
        </g>
    </g>
</svg>