<?xml version="1.0" encoding="UTF-8"?>
<svg width="24px" height="24px" viewBox="0 0 24 24" version="1.1" xmlns="http://www.w3.org/2000/svg" xmlns:xlink="http://www.w3.org/1999/xlink">
    <!-- Generator: Sketch 39.1 (31720) - http://www.bohemiancoding.com/sketch -->
    <title>web_locking_normal_right_</title>
    <desc>Created with Sketch.</desc>
    <defs></defs>
    <g id="Symbols" stroke="none" stroke-width="1" fill="none" fill-rule="evenodd">
        <g id="web_locking_normal_right_">
            <g id="web_locking_normal_right_yellow-copy-3">
                <g id="zs_svg_phone">
                    <g id="Group-3" transform="translate(4.000000, 2.500000)" fill="#FFFFFF">
                        <path d="M5,18 L0,18 L0,0 L12,0 L12,6.10061302 C11.7572595,6.03496142 11.5025401,6 11.2399403,6 C10.9847047,6 10.7367834,6.03309772 10.5,6.09537738 L10.5,2.25 L1.5,2.25 L1.5,14.4 L5,14.4 L5,18 Z" id="Combined-Shape"></path>
                        <path d="M15.0097403,12.1298701 L15.0097403,11.0080065 C15.0097403,8.86958862 13.3308081,7.12987013 11.2597403,7.12987013 C9.19288665,7.12987013 7.50974026,8.86617091 7.50974026,11.0080065 L7.50974026,12.1298701 L6.76938977,12.1298701 C6.48739305,12.1298701 6.25974026,12.3552602 6.25974026,12.6332929 L6.25974026,18.6264474 C6.25974026,18.8969676 6.48791812,19.1298701 6.76938977,19.1298701 L15.7500907,19.1298701 C16.0320875,19.1298701 16.2597403,18.9044801 16.2597403,18.6264474 L16.2597403,12.6332929 C16.2597403,12.3627727 16.0315624,12.1298701 15.7500907,12.1298701 L15.0097403,12.1298701 Z M8.5727324,12.1298701 L8.5727324,11.0080065 C8.5727324,9.47553306 9.77817276,8.22987013 11.2597403,8.22987013 C12.7425966,8.22987013 13.9467481,9.47592517 13.9467481,11.0080065 L13.9467481,12.1298701 L8.5727324,12.1298701 Z" id="Combined-Shape-Copy"></path>
                    </g>
                    <rect x="0" y="0" width="24" height="24"></rect>
                </g>
            </g>
        </g>
    </g>
</svg>