<?xml version="1.0" encoding="UTF-8"?>
<svg width="24px" height="24px" viewBox="0 0 24 24" version="1.1" xmlns="http://www.w3.org/2000/svg" xmlns:xlink="http://www.w3.org/1999/xlink">
    <!-- Generator: Sketch 39.1 (31720) - http://www.bohemiancoding.com/sketch -->
    <title>web_refresh_normal_right</title>
    <desc>Created with Sketch.</desc>
    <defs></defs>
    <g id="Symbols" stroke="none" stroke-width="1" fill="none" fill-rule="evenodd">
        <g id="web_refresh_normal_right">
            <g>
                <g id="Group-2" transform="translate(2.000000, 3.000000)" fill-opacity="0.32" fill="#000000">
                    <path d="M16.7581106,3.05609689 C15.1087912,1.18231843 12.6924683,0 10,0 C5.02943725,0 1,4.02943725 1,9 L2.5,9 C2.5,4.85786438 5.85786438,1.5 10,1.5 C12.2783049,1.5 14.3193406,2.51587015 15.694852,4.11935543 L13.3999939,6.41421356 L19.043049,6.42801268 L19.0568481,0.757359313 L16.7581106,3.05609689 Z" id="Combined-Shape"></path>
                    <path d="M16.7012624,12.0560969 C15.0519431,10.1823184 12.6356201,9 9.94315185,9 C4.97258911,9 0.943151854,13.0294373 0.943151854,18 L2.44315185,18 C2.44315185,13.8578644 5.80101623,10.5 9.94315185,10.5 C12.2214567,10.5 14.2624924,11.5158701 15.6380039,13.1193554 L13.3431458,15.4142136 L18.9862009,15.4280127 L19,9.75735931 L16.7012624,12.0560969 Z" id="Combined-Shape" transform="translate(9.971576, 13.500000) scale(-1, -1) translate(-9.971576, -13.500000) "></path>
                </g>
                <rect id="ic_refresh" x="0" y="0" width="24" height="24"></rect>
            </g>
        </g>
    </g>
</svg>