<?xml version="1.0" encoding="UTF-8"?>
<svg width="24px" height="24px" viewBox="0 0 24 24" version="1.1" xmlns="http://www.w3.org/2000/svg" xmlns:xlink="http://www.w3.org/1999/xlink">
    <!-- Generator: Sketch 39.1 (31720) - http://www.bohemiancoding.com/sketch -->
    <title>web_locking_normal_right</title>
    <desc>Created with Sketch.</desc>
    <defs></defs>
    <g id="Symbols" stroke="none" stroke-width="1" fill="none" fill-rule="evenodd">
        <g id="web_locking_normal_right">
            <g id="web_locking_pressed_right">
                <g id="password" transform="translate(3.000000, 1.000000)">
                    <path d="M9.5,15.3234481 C10.0825962,15.5293663 10.5,16.0849858 10.5,16.7380952 C10.5,17.5665224 9.82842712,18.2380952 9,18.2380952 C8.17157288,18.2380952 7.5,17.5665224 7.5,16.7380952 C7.5,16.0849858 7.91740381,15.5293663 8.5,15.3234481 L8.5,13.2285738 C8.5,12.9576899 8.73193359,12.7380952 9,12.7380952 C9.27614237,12.7380952 9.5,12.9531526 9.5,13.2285738 L9.5,15.3234481 Z M15.3500242,8.86000061 L15.3500242,6.34604127 C15.3500242,2.84681207 12.5070324,0 9.00002432,0 C5.50015227,0 2.65002441,2.84121945 2.65002441,6.34604127 L2.65002441,8.86000061 L0.99044323,8.86000061 C0.714942813,8.86000061 0.5,9.08348518 0.5,9.35916737 L0.5,21.503691 C0.5,21.7747389 0.719578913,22.0028578 0.99044323,22.0028578 L17.0095568,22.0028578 C17.2850572,22.0028578 17.5,21.7793732 17.5,21.503691 L17.5,9.35916737 C17.5,9.08811951 17.2804211,8.86000061 17.0095568,8.86000061 L15.3500242,8.86000061 Z M4.45002441,8.86000061 L4.45002441,6.34604127 C4.45002441,3.83835753 6.49123672,1.8 9.00002432,1.8 C11.5109944,1.8 13.5500242,3.83899915 13.5500242,6.34604127 L13.5500242,8.86000061 L4.45002441,8.86000061 Z" id="Combined-Shape" fill="#757575"></path>
                    <g id="Rectangle-330" transform="translate(0.000000, 8.761905)"></g>
                </g>
                <rect id="password" x="0" y="0" width="24" height="24"></rect>
            </g>
            <rect id="Rectangle-19" x="0" y="0" width="24" height="24"></rect>
        </g>
    </g>
</svg>